<svg width="488" height="77" viewBox="0 0 488 77" fill="none" xmlns="http://www.w3.org/2000/svg">
<path d="M51.1 26.2L50.086 27.9239L51.8998 28.9908L52.8732 27.1251L51.1 26.2ZM49.4 25.2L50.414 23.4761H50.414L49.4 25.2ZM44.9 23L44.0578 24.814L44.0848 24.8266L44.1122 24.8383L44.9 23ZM38.8 20.7L39.38 18.7859H39.38L38.8 20.7ZM28.2 20.5L29.0944 22.2889L28.2 20.5ZM28.2 26.1L29.3331 24.4519H29.3331L28.2 26.1ZM32.7 28.1L32.1072 30.0101L32.1162 30.0129L32.1253 30.0157L32.7 28.1ZM39.8 30.3L39.1955 32.2065L39.2077 32.2103L39.22 32.214L39.8 30.3ZM51.2 34.9L52.1526 33.1414L51.2 34.9ZM58.6 41.6L56.911 42.6711L56.917 42.6806L56.9231 42.69L58.6 41.6ZM58.9 63.1L60.6636 64.0433L60.668 64.0349L60.6725 64.0265L58.9 63.1ZM52.7 70L53.8094 71.6641L52.7 70ZM44 73.8L44.4468 75.7495L44.466 75.7451L44.4851 75.7403L44 73.8ZM23.5 73.9L23.1078 75.8612L23.1281 75.8652L23.1484 75.8689L23.5 73.9ZM12.8 71L12.1136 72.8785L12.1296 72.8844L12.1458 72.89L12.8 71ZM3.3 66.6L1.50489 65.7182L0.682764 67.3918L2.29476 68.329L3.3 66.6ZM11.7 49.5L12.729 47.785L10.8639 46.666L9.90489 48.6182L11.7 49.5ZM19 53.4L18.1724 55.2207L19 53.4ZM26.3 56.1L25.7253 58.0157L25.7382 58.0195L26.3 56.1ZM38.9 56.5L40.0094 58.1641L40.024 58.1544L40.0384 58.1444L38.9 56.5ZM38 51L37.0423 52.7558L37.0736 52.7729L37.1056 52.7889L38 51ZM32.2 48.8L31.6003 50.708L31.6324 50.718L31.6647 50.727L32.2 48.8ZM24.4 46.3L23.7584 48.1943L23.7696 48.1981L23.7808 48.2017L24.4 46.3ZM14.2 41.6L13.0811 43.2577L13.0955 43.2674L13.11 43.2769L14.2 41.6ZM8.3 35.3L6.52087 36.2136L6.52599 36.2236L6.53123 36.2335L8.3 35.3ZM10.1 13.2L8.46008 12.0551H8.46008L10.1 13.2ZM19.8 5.2L20.6207 7.02384L20.6275 7.02077L20.6343 7.01766L19.8 5.2ZM42.9 3.7L42.3772 5.63045L42.4006 5.63681L42.4243 5.64259L42.9 3.7ZM52 6.7L51.2122 8.53829L51.2199 8.54161L51.2277 8.54488L52 6.7ZM59.5 10.1L61.2732 11.0251L62.2144 9.22112L60.3944 8.31114L59.5 10.1ZM51.1 26.2C52.114 24.4761 52.114 24.4761 52.114 24.4761C52.114 24.4761 52.114 24.4761 52.114 24.4761C52.114 24.4761 52.114 24.4761 52.1139 24.4761C52.1138 24.476 52.1138 24.476 52.1136 24.4759C52.1131 24.4756 52.1132 24.4756 52.1124 24.4752C52.112 24.4749 52.1089 24.4731 52.1074 24.4722C52.0993 24.4674 52.1001 24.4679 52.0875 24.4605C52.0689 24.4496 52.0441 24.435 52.0078 24.4136C51.9055 24.3535 51.8621 24.3279 51.689 24.2261C51.6154 24.1828 51.5414 24.1393 51.45 24.0855C51.428 24.0726 51.3369 24.019 51.3105 24.0035C51.2668 23.9778 51.2806 23.9859 51.2358 23.9595C51.2131 23.9462 51.2202 23.9504 51.1972 23.9368C51.1934 23.9346 51.1619 23.9161 51.1578 23.9136C51.1494 23.9087 51.0046 23.8235 50.9918 23.816C50.963 23.799 50.8457 23.7301 50.8125 23.7105C50.7987 23.7024 50.6381 23.6079 50.6199 23.5972C50.6191 23.5967 50.4193 23.4792 50.414 23.4761L48.386 26.9239C48.4161 26.9416 48.4088 26.9373 48.4387 26.9549C48.4606 26.9677 48.4689 26.9727 48.4906 26.9854C48.5014 26.9917 48.5055 26.9942 48.5162 27.0005C48.5244 27.0053 48.5335 27.0106 48.5416 27.0154C48.5504 27.0206 48.5834 27.04 48.5918 27.045C48.603 27.0515 48.6303 27.0676 48.6412 27.074C48.6432 27.0752 48.6453 27.0764 48.6473 27.0776C48.6494 27.0788 48.6514 27.08 48.6534 27.0812C48.657 27.0833 48.662 27.0862 48.6656 27.0884C48.674 27.0933 48.6814 27.0977 48.6898 27.1026C48.6957 27.1061 48.7318 27.1273 48.7375 27.1306C48.7584 27.143 48.7637 27.1461 48.7844 27.1582C48.7913 27.1623 48.8699 27.2086 48.8757 27.2119C48.9408 27.2502 48.8997 27.2261 48.9637 27.2637C48.9666 27.2654 48.9715 27.2683 48.9745 27.27C48.9829 27.275 48.9767 27.2714 48.9852 27.2763C49.001 27.2857 48.9907 27.2796 49.0064 27.2889C49.0065 27.2889 49.017 27.2951 49.017 27.2951C49.0188 27.2961 49.0205 27.2971 49.0223 27.2982C49.024 27.2992 49.0258 27.3002 49.0275 27.3012C49.0347 27.3055 49.0307 27.3031 49.038 27.3074C49.0418 27.3097 49.0445 27.3112 49.0484 27.3135C49.0853 27.3352 49.0939 27.3403 49.1297 27.3614C49.2064 27.4065 49.3629 27.4985 49.4219 27.5332C49.4416 27.5448 49.5328 27.5985 49.5481 27.6075C49.5617 27.6155 49.5936 27.6343 49.6062 27.6416C49.6091 27.6434 49.6103 27.644 49.6132 27.6458C49.6158 27.6473 49.6176 27.6484 49.6202 27.6499C49.6236 27.6519 49.6306 27.656 49.634 27.658C49.6358 27.6591 49.639 27.6609 49.6408 27.662C49.6419 27.6627 49.6431 27.6633 49.6442 27.664C49.6453 27.6647 49.6465 27.6653 49.6476 27.666C49.6522 27.6687 49.6497 27.6672 49.6543 27.6699C49.6587 27.6726 49.6565 27.6713 49.661 27.6739C49.6649 27.6762 49.7096 27.7025 49.7124 27.7041C49.721 27.7092 49.7286 27.7136 49.7369 27.7185C49.7429 27.722 49.743 27.7221 49.7488 27.7256C49.7501 27.7263 49.7594 27.7318 49.7606 27.7325C49.7829 27.7456 49.7613 27.7329 49.7834 27.7459C49.7922 27.751 49.7858 27.7473 49.7945 27.7524C49.7965 27.7536 49.798 27.7545 49.8 27.7556C49.8016 27.7566 49.8038 27.7579 49.8054 27.7588C49.832 27.7745 49.8214 27.7682 49.8469 27.7832C49.8987 27.8137 49.9456 27.8413 49.9797 27.8614C49.9856 27.8648 49.987 27.8656 49.9926 27.8689C50.002 27.8745 49.9954 27.8706 50.0046 27.876C50.0121 27.8804 50.0198 27.885 50.0262 27.8887C50.0343 27.8935 50.0375 27.8954 50.0445 27.8995C50.0449 27.8997 50.0461 27.9004 50.0465 27.9007C50.0473 27.9011 50.0477 27.9014 50.0485 27.9018C50.0488 27.902 50.0492 27.9022 50.0495 27.9024C50.0498 27.9026 50.0501 27.9028 50.0504 27.903C50.0508 27.9032 50.0511 27.9034 50.0514 27.9035C50.0517 27.9037 50.052 27.9039 50.0523 27.9041C50.0554 27.9059 50.0566 27.9066 50.0594 27.9082C50.0686 27.9136 50.0629 27.9103 50.071 27.9151C50.0729 27.9162 50.0785 27.9195 50.0793 27.92C50.0795 27.92 50.0796 27.9201 50.0797 27.9202C50.0799 27.9203 50.08 27.9204 50.0801 27.9204C50.0802 27.9205 50.0808 27.9208 50.0809 27.9209C50.0811 27.921 50.0821 27.9216 50.0822 27.9217C50.0826 27.9219 50.0825 27.9218 50.0828 27.922C50.0829 27.9221 50.083 27.9221 50.0831 27.9222C50.0832 27.9222 50.0833 27.9223 50.0834 27.9223C50.0835 27.9224 50.0835 27.9224 50.0836 27.9225C50.0837 27.9225 50.0838 27.9226 50.0839 27.9226C50.084 27.9227 50.0842 27.9228 50.0843 27.9229C50.0844 27.9229 50.0844 27.923 50.0845 27.923C50.0846 27.923 50.0846 27.9231 50.0847 27.9231C50.0849 27.9232 50.0848 27.9232 50.085 27.9233C50.0851 27.9233 50.0853 27.9235 50.0853 27.9235C50.0854 27.9235 50.0854 27.9235 50.0854 27.9236C50.0855 27.9236 50.0855 27.9236 50.0855 27.9236C50.0856 27.9236 50.0856 27.9237 50.0856 27.9237C50.0857 27.9237 50.0857 27.9237 50.0857 27.9237C50.0858 27.9238 50.0858 27.9238 50.0859 27.9238C50.0859 27.9238 50.0859 27.9238 50.0859 27.9238C50.0859 27.9238 50.0859 27.9238 50.0859 27.9239C50.0859 27.9239 50.0859 27.9239 50.086 27.9239C50.086 27.9239 50.086 27.9239 51.1 26.2ZM50.414 23.4761C49.1799 22.7501 47.5953 21.9792 45.6878 21.1617L44.1122 24.8383C45.938 25.6208 47.3535 26.3165 48.386 26.9239L50.414 23.4761ZM45.7422 21.186C43.7814 20.2756 41.6594 19.4767 39.38 18.7859L38.22 22.614C40.3406 23.2566 42.2852 23.991 44.0578 24.814L45.7422 21.186ZM39.38 18.7859C37.0065 18.0667 34.6445 17.7 32.3 17.7V21.7C34.2222 21.7 36.1935 22 38.22 22.614L39.38 18.7859ZM32.3 17.7C30.4389 17.7 28.7379 17.995 27.3056 18.7111L29.0944 22.2889C29.7955 21.9383 30.8278 21.7 32.3 21.7V17.7ZM27.3056 18.7111C26.4781 19.1249 25.7683 19.7305 25.2794 20.5554C24.7948 21.3732 24.6 22.2835 24.6 23.2H28.6C28.6 22.8498 28.6719 22.6768 28.7206 22.5946C28.7651 22.5195 28.8552 22.4084 29.0944 22.2889L27.3056 18.7111ZM24.6 23.2C24.6 25.1175 25.5079 26.6763 27.0669 27.7481L29.3331 24.4519C28.7587 24.0571 28.6 23.6825 28.6 23.2H24.6ZM27.0669 27.7481C28.3655 28.6408 30.077 29.3801 32.1072 30.0101L33.2928 26.1899C31.4563 25.6199 30.1678 25.0258 29.3331 24.4519L27.0669 27.7481ZM32.1253 30.0157C34.1125 30.6118 36.4687 31.3419 39.1955 32.2065L40.4045 28.3935C37.6646 27.5248 35.2875 26.7882 33.2747 26.1843L32.1253 30.0157ZM39.22 32.214C43.5229 33.518 47.1923 35.0037 50.2474 36.6586L52.1526 33.1414C48.8078 31.3296 44.8771 29.7487 40.38 28.386L39.22 32.214ZM50.2474 36.6586C53.1853 38.2499 55.3823 40.2604 56.911 42.6711L60.289 40.5289C58.3511 37.4729 55.6147 35.0167 52.1526 33.1414L50.2474 36.6586ZM56.9231 42.69C58.3764 44.9259 59.2 48.0701 59.2 52.3H63.2C63.2 47.5965 62.2902 43.6075 60.2769 40.51L56.9231 42.69ZM59.2 52.3C59.2 56.3345 58.4745 59.5968 57.1275 62.1735L60.6725 64.0265C62.3922 60.7365 63.2 56.7988 63.2 52.3H59.2ZM57.1364 62.1567C55.752 64.745 53.9053 66.7928 51.5906 68.3359L53.8094 71.6641C56.6947 69.7405 58.9814 67.1883 60.6636 64.0433L57.1364 62.1567ZM51.5906 68.3359C49.1917 69.9351 46.505 71.1122 43.5149 71.8597L44.4851 75.7403C47.895 74.8878 51.0083 73.5315 53.8094 71.6641L51.5906 68.3359ZM43.5532 71.8505C40.502 72.5498 37.3853 72.9 34.2 72.9V76.9C37.6814 76.9 41.098 76.5169 44.4468 75.7495L43.5532 71.8505ZM34.2 72.9C30.9305 72.9 27.482 72.5794 23.8516 71.9311L23.1484 75.8689C26.9847 76.5539 30.6695 76.9 34.2 76.9V72.9ZM23.8922 71.9388C20.3127 71.2229 16.8336 70.2798 13.4542 69.11L12.1458 72.89C15.6997 74.1202 19.354 75.1104 23.1078 75.8612L23.8922 71.9388ZM13.4864 69.1215C10.118 67.8907 7.05957 66.4723 4.30524 64.871L2.29476 68.329C5.27376 70.061 8.54868 71.576 12.1136 72.8785L13.4864 69.1215ZM5.09511 67.4818L13.4951 50.3818L9.90489 48.6182L1.50489 65.7182L5.09511 67.4818ZM11.7 49.5C10.671 51.215 10.671 51.215 10.671 51.215C10.671 51.215 10.671 51.215 10.671 51.215C10.6711 51.215 10.6711 51.215 10.6711 51.215C10.6711 51.215 10.6711 51.215 10.6711 51.2151C10.6712 51.2151 10.6712 51.2151 10.6713 51.2151C10.6713 51.2152 10.6713 51.2152 10.6714 51.2152C10.6714 51.2152 10.6715 51.2153 10.6715 51.2153C10.6716 51.2154 10.6719 51.2155 10.6721 51.2156C10.6727 51.216 10.6722 51.2157 10.673 51.2162C10.6736 51.2165 10.6744 51.217 10.6754 51.2176C10.6769 51.2185 10.677 51.2186 10.6788 51.2197C10.6805 51.2207 10.6791 51.2199 10.6809 51.2209C10.6811 51.2211 10.6829 51.2221 10.6832 51.2223C10.6868 51.2245 10.6847 51.2232 10.6886 51.2255C10.6987 51.2316 10.6908 51.2269 10.7023 51.2337C10.7064 51.2362 10.7319 51.2515 10.7413 51.2572C10.7452 51.2595 10.7493 51.262 10.7535 51.2645C10.7556 51.2658 10.7578 51.2671 10.76 51.2684C10.7608 51.2689 10.7658 51.2719 10.7667 51.2724C10.7673 51.2728 10.7679 51.2731 10.7684 51.2734C10.769 51.2738 10.7696 51.2741 10.7702 51.2745C10.7737 51.2766 10.7701 51.2745 10.7737 51.2766C10.7741 51.2769 10.7803 51.2806 10.7809 51.2809C10.7837 51.2826 10.7929 51.2881 10.796 51.29C10.896 51.35 10.8314 51.3112 10.9523 51.3837C11.0636 51.4505 10.9373 51.3748 11.0538 51.4447C11.0592 51.4479 11.1605 51.5087 11.171 51.515C11.4379 51.6751 11.4457 51.6798 11.796 51.89C12.1797 52.1202 12.204 52.1348 12.671 52.415L14.729 48.985C14.7037 48.9699 14.6299 48.9256 14.6059 48.9112C14.5657 48.8871 14.5858 48.8991 14.5459 48.8752C14.5142 48.8561 14.5478 48.8763 14.5162 48.8574C14.5133 48.8556 14.5044 48.8503 14.5015 48.8485C14.499 48.847 14.4966 48.8456 14.4941 48.8441C14.4917 48.8426 14.4892 48.8412 14.4868 48.8397C14.4024 48.7891 14.4546 48.8204 14.3716 48.7706C14.3486 48.7568 14.2819 48.7167 14.2602 48.7038C14.2492 48.6972 14.2167 48.6777 14.206 48.6712C14.2007 48.668 14.1846 48.6584 14.1793 48.6552C14.174 48.652 14.1713 48.6504 14.166 48.6472C14.1638 48.6459 14.1616 48.6446 14.1594 48.6433C14.1572 48.6419 14.155 48.6406 14.1528 48.6393C14.1249 48.6226 14.1282 48.6245 14.1006 48.608C14.0799 48.5956 14.0696 48.5894 14.0493 48.5772C14.0087 48.5528 13.8894 48.4813 13.854 48.46C13.7917 48.4227 13.5517 48.2786 13.5102 48.2538C13.3876 48.1802 13.3308 48.1461 13.229 48.085C13.0623 47.985 12.9373 47.91 12.854 47.86C12.8475 47.8561 12.8299 47.8456 12.8247 47.8424C12.8101 47.8337 12.8126 47.8352 12.7993 47.8272C12.7977 47.8263 12.7951 47.8247 12.7936 47.8238C12.7924 47.8231 12.7891 47.8211 12.7881 47.8205C12.7818 47.8167 12.7838 47.8179 12.7778 47.8143C12.7667 47.8076 12.7701 47.8097 12.7602 47.8038C12.7526 47.7992 12.7392 47.7912 12.7368 47.7897C12.7328 47.7873 12.7336 47.7878 12.7309 47.7862C12.7302 47.7857 12.7299 47.7856 12.7295 47.7853C12.7293 47.7852 12.7292 47.7851 12.7291 47.7851C12.7291 47.7851 12.729 47.785 12.729 47.785C12.729 47.785 12.729 47.785 12.729 47.785C12.729 47.785 12.729 47.785 11.7 49.5ZM12.671 52.415C14.0946 53.2692 15.9366 54.2045 18.1724 55.2207L19.8276 51.5793C17.6634 50.5955 15.972 49.7308 14.729 48.985L12.671 52.415ZM18.1724 55.2207C20.4657 56.2631 22.985 57.1936 25.7253 58.0157L26.8747 54.1843C24.2817 53.4064 21.9343 52.5369 19.8276 51.5793L18.1724 55.2207ZM25.7382 58.0195C28.6463 58.8706 31.5687 59.3 34.5 59.3V55.3C31.9647 55.3 29.4203 54.9294 26.8618 54.1805L25.7382 58.0195ZM34.5 59.3C35.6401 59.3 36.668 59.2295 37.5578 59.0677C38.4273 58.9096 39.292 58.6424 40.0094 58.1641L37.7906 54.8359C37.708 54.891 37.4394 55.0237 36.8422 55.1323C36.2653 55.2372 35.4933 55.3 34.5 55.3V59.3ZM40.0384 58.1444C41.3635 57.227 42.2 55.8825 42.2 54.2H38.2C38.2 54.3842 38.1698 54.573 37.7616 54.8556L40.0384 58.1444ZM42.2 54.2C42.2 53.1301 41.9128 52.1111 41.2981 51.2169C40.6952 50.34 39.8513 49.6896 38.8944 49.2111L37.1056 52.7889C37.6154 53.0438 37.8715 53.2934 38.0019 53.4831C38.1205 53.6555 38.2 53.8699 38.2 54.2H42.2ZM38.9577 49.2442C37.3092 48.345 35.218 47.5626 32.7353 46.873L31.6647 50.727C33.9821 51.3707 35.7575 52.055 37.0423 52.7558L38.9577 49.2442ZM32.7997 46.892C30.4741 46.1611 27.8808 45.3299 25.0192 44.3983L23.7808 48.2017C26.6526 49.1367 29.2592 49.9722 31.6003 50.708L32.7997 46.892ZM25.0416 44.4057C21.0122 43.0409 17.7759 41.539 15.29 39.9231L13.11 43.2769C15.9574 45.1277 19.5212 46.7591 23.7584 48.1943L25.0416 44.4057ZM15.3189 39.9423C12.8746 38.2924 11.1556 36.4257 10.0688 34.3665L6.53123 36.2335C7.97775 38.9743 10.192 41.3076 13.0811 43.2577L15.3189 39.9423ZM10.0791 34.3864C8.98942 32.2643 8.4 29.6267 8.4 26.4H4.4C4.4 30.1066 5.07724 33.4023 6.52087 36.2136L10.0791 34.3864ZM8.4 26.4C8.4 21.4505 9.55543 17.474 11.7399 14.3448L8.46008 12.0551C5.71124 15.9927 4.4 20.8161 4.4 26.4H8.4ZM11.7399 14.3448C13.996 11.1132 16.9439 8.67842 20.6207 7.02384L18.9793 3.37615C14.6561 5.32158 11.1374 8.22014 8.46008 12.0551L11.7399 14.3448ZM20.6343 7.01766C24.428 5.27631 28.5087 4.4 32.9 4.4V0.399998C27.958 0.399998 23.3053 1.39036 18.9657 3.38234L20.6343 7.01766ZM32.9 4.4C36.1982 4.4 39.3552 4.81201 42.3772 5.63045L43.4228 1.76955C40.0448 0.854652 36.5352 0.399998 32.9 0.399998V4.4ZM42.4243 5.64259C45.5951 6.41912 48.5229 7.38576 51.2122 8.53829L52.7878 4.86171C49.8771 3.61423 46.7383 2.58088 43.3757 1.7574L42.4243 5.64259ZM51.2277 8.54488C54.0647 9.73243 56.5222 10.8472 58.6056 11.8888L60.3944 8.31114C58.2112 7.21951 55.6687 6.06756 52.7723 4.85511L51.2277 8.54488ZM57.7268 9.17486L49.3268 25.2749L52.8732 27.1251L61.2732 11.0251L57.7268 9.17486ZM134.719 71.8L135.553 69.9823L134.719 71.8ZM124.719 64.1L123.138 65.3256L123.146 65.3356L123.154 65.3455L124.719 64.1ZM119.119 52.9L117.193 53.4415L117.196 53.4494L119.119 52.9ZM117.319 3V0.999996H115.319V3H117.319ZM136.819 3H138.819V0.999996H136.819V3ZM137.519 46.2L139.473 45.7726L137.519 46.2ZM139.719 51.9L138.004 52.929L139.719 51.9ZM143.519 55.9L142.426 57.5752L142.468 57.6024L142.511 57.6276L143.519 55.9ZM155.219 55.9L156.226 57.6276L156.253 57.6122L156.279 57.596L155.219 55.9ZM159.019 51.9L157.286 50.9006L157.28 50.9116L157.274 50.9228L159.019 51.9ZM161.919 3V0.999996H159.919V3H161.919ZM181.419 3H183.419V0.999996H181.419V3ZM179.419 53.3L177.51 52.7034L177.506 52.7171L177.501 52.7308L179.419 53.3ZM173.619 64.5L172.067 63.2388L173.619 64.5ZM163.619 72L164.414 73.8351L164.421 73.832L164.428 73.8289L163.619 72ZM149.319 72.6C143.866 72.6 139.298 71.7013 135.553 69.9823L133.884 73.6177C138.273 75.632 143.438 76.6 149.319 76.6V72.6ZM135.553 69.9823C131.75 68.2369 128.674 65.8584 126.284 62.8545L123.154 65.3455C125.963 68.8749 129.554 71.6298 133.884 73.6177L135.553 69.9823ZM126.299 62.8744C123.931 59.8204 122.176 56.3195 121.042 52.3506L117.196 53.4494C118.462 57.8805 120.44 61.8462 123.138 65.3256L126.299 62.8744ZM121.044 52.3585C119.896 48.2772 119.319 43.9933 119.319 39.5H115.319C115.319 44.34 115.941 48.9895 117.193 53.4415L121.044 52.3585ZM119.319 39.5V3H115.319V39.5H119.319ZM117.319 5H136.819V0.999996H117.319V5ZM134.819 3V39.5H138.819V3H134.819ZM134.819 39.5C134.819 41.9673 135.066 44.3444 135.565 46.6274L139.473 45.7726C139.039 43.7889 138.819 41.6994 138.819 39.5H134.819ZM135.565 46.6274C136.072 48.947 136.879 51.0546 138.004 52.929L141.434 50.871C140.558 49.412 139.898 47.7197 139.473 45.7726L135.565 46.6274ZM138.004 52.929C139.15 54.839 140.624 56.3996 142.426 57.5752L144.611 54.2248C143.347 53.4004 142.288 52.2943 141.434 50.871L138.004 52.929ZM142.511 57.6276C144.478 58.7753 146.777 59.3 149.319 59.3V55.3C147.327 55.3 145.759 54.8914 144.526 54.1724L142.511 57.6276ZM149.319 59.3C151.915 59.3 154.251 58.7801 156.226 57.6276L154.211 54.1724C152.987 54.8866 151.389 55.3 149.319 55.3V59.3ZM156.279 57.596C158.168 56.4155 159.668 54.8334 160.764 52.8772L157.274 50.9228C156.503 52.2999 155.47 53.3845 154.159 54.204L156.279 57.596ZM160.751 52.8994C161.863 50.9725 162.666 48.8434 163.173 46.5274L159.265 45.6726C158.838 47.6233 158.175 49.3609 157.286 50.9006L160.751 52.8994ZM163.173 46.5274C163.671 44.2484 163.919 41.9049 163.919 39.5H159.919C159.919 41.6284 159.7 43.6849 159.265 45.6726L163.173 46.5274ZM163.919 39.5V3H159.919V39.5H163.919ZM161.919 5H181.419V0.999996H161.919V5ZM179.419 3V39.5H183.419V3H179.419ZM179.419 39.5C179.419 44.2518 178.777 48.6488 177.51 52.7034L181.328 53.8965C182.727 49.4179 183.419 44.6149 183.419 39.5H179.419ZM177.501 52.7308C176.304 56.7653 174.488 60.259 172.067 63.2388L175.171 65.7612C177.95 62.341 180 58.3681 181.336 53.8692L177.501 52.7308ZM172.067 63.2388C169.681 66.1746 166.61 68.4888 162.809 70.1711L164.428 73.8289C168.761 71.9112 172.356 69.2254 175.171 65.7612L172.067 63.2388ZM162.824 70.1649C159.132 71.7644 154.649 72.6 149.319 72.6V76.6C155.055 76.6 160.105 75.7023 164.414 73.8351L162.824 70.1649ZM241.135 74H239.135V76H241.135V74ZM241.135 3V0.999996H239.135V3H241.135ZM260.635 3H262.635V0.999996H260.635V3ZM260.635 74V76H262.635V74H260.635ZM243.135 74V3H239.135V74H243.135ZM241.135 5H260.635V0.999996H241.135V5ZM258.635 3V74H262.635V3H258.635ZM260.635 72H241.135V76H260.635V72ZM376.673 20V22H378.673V20H376.673ZM356.273 20V18H354.273V20H356.273ZM356.273 74V76H358.273V74H356.273ZM336.773 74H334.773V76H336.773V74ZM336.773 20H338.773V18H336.773V20ZM316.273 20H314.273V22H316.273V20ZM316.273 3V0.999996H314.273V3H316.273ZM376.673 3H378.673V0.999996H376.673V3ZM376.673 18H356.273V22H376.673V18ZM354.273 20V74H358.273V20H354.273ZM356.273 72H336.773V76H356.273V72ZM338.773 74V20H334.773V74H338.773ZM336.773 18H316.273V22H336.773V18ZM318.273 20V3H314.273V20H318.273ZM316.273 5H376.673V0.999996H316.273V5ZM374.673 3V20H378.673V3H374.673ZM475.276 26.2L474.262 27.9239L476.076 28.9908L477.049 27.1251L475.276 26.2ZM473.576 25.2L474.59 23.4761L473.576 25.2ZM469.076 23L468.234 24.814L468.261 24.8266L468.288 24.8383L469.076 23ZM462.976 20.7L463.556 18.7859H463.556L462.976 20.7ZM452.376 20.5L453.27 22.2889L452.376 20.5ZM452.376 26.1L453.509 24.4519L452.376 26.1ZM456.876 28.1L456.283 30.0101L456.292 30.0129L456.301 30.0157L456.876 28.1ZM463.976 30.3L463.371 32.2065L463.384 32.2103L463.396 32.214L463.976 30.3ZM475.376 34.9L476.328 33.1414L475.376 34.9ZM482.776 41.6L481.087 42.6711L481.093 42.6806L481.099 42.69L482.776 41.6ZM483.076 63.1L484.839 64.0433L484.844 64.0349L484.848 64.0265L483.076 63.1ZM476.876 70L477.985 71.6641L476.876 70ZM468.176 73.8L468.623 75.7495L468.642 75.7451L468.661 75.7403L468.176 73.8ZM447.676 73.9L447.284 75.8612L447.304 75.8652L447.324 75.8689L447.676 73.9ZM436.976 71L436.289 72.8785L436.305 72.8844L436.322 72.89L436.976 71ZM427.476 66.6L425.681 65.7182L424.859 67.3918L426.471 68.329L427.476 66.6ZM435.876 49.5L436.905 47.785L435.04 46.666L434.081 48.6182L435.876 49.5ZM443.176 53.4L442.348 55.2207L443.176 53.4ZM450.476 56.1L449.901 58.0157L449.914 58.0195L450.476 56.1ZM463.076 56.5L464.185 58.1641L464.2 58.1544L464.214 58.1444L463.076 56.5ZM462.176 51L461.218 52.7558L461.249 52.7729L461.281 52.7889L462.176 51ZM456.376 48.8L455.776 50.708L455.808 50.718L455.84 50.727L456.376 48.8ZM448.576 46.3L447.934 48.1943L447.945 48.1981L447.957 48.2017L448.576 46.3ZM438.376 41.6L437.257 43.2577L437.271 43.2674L437.286 43.2769L438.376 41.6ZM432.476 35.3L430.697 36.2136L430.702 36.2236L430.707 36.2335L432.476 35.3ZM434.276 13.2L432.636 12.0551L434.276 13.2ZM443.976 5.2L444.797 7.02384L444.803 7.02077L444.81 7.01766L443.976 5.2ZM467.076 3.7L466.553 5.63045L466.576 5.63681L466.6 5.64259L467.076 3.7ZM476.176 6.7L475.388 8.53829L475.396 8.54161L475.404 8.54488L476.176 6.7ZM483.676 10.1L485.449 11.0251L486.39 9.22112L484.57 8.31114L483.676 10.1ZM475.276 26.2C476.29 24.4761 476.29 24.4761 476.29 24.4761C476.29 24.4761 476.29 24.4761 476.29 24.4761C476.29 24.4761 476.29 24.4761 476.29 24.4761C476.29 24.476 476.29 24.476 476.289 24.4759C476.289 24.4756 476.289 24.4756 476.288 24.4752C476.288 24.4749 476.285 24.4731 476.283 24.4722C476.275 24.4674 476.276 24.4679 476.263 24.4605C476.245 24.4496 476.22 24.435 476.184 24.4136C476.081 24.3535 476.038 24.3279 475.865 24.2261C475.791 24.1828 475.717 24.1393 475.626 24.0855C475.604 24.0726 475.513 24.019 475.486 24.0035C475.443 23.9778 475.456 23.9859 475.412 23.9595C475.389 23.9462 475.396 23.9504 475.373 23.9368C475.369 23.9346 475.338 23.9161 475.334 23.9136C475.325 23.9087 475.18 23.8235 475.168 23.816C475.139 23.799 475.022 23.7301 474.988 23.7105C474.974 23.7024 474.814 23.6079 474.796 23.5972C474.795 23.5967 474.595 23.4792 474.59 23.4761L472.562 26.9239C472.592 26.9416 472.585 26.9373 472.614 26.9549C472.636 26.9677 472.645 26.9727 472.666 26.9854C472.677 26.9917 472.681 26.9942 472.692 27.0005C472.7 27.0053 472.709 27.0106 472.717 27.0154C472.726 27.0206 472.759 27.04 472.768 27.045C472.779 27.0515 472.806 27.0676 472.817 27.074C472.819 27.0752 472.821 27.0764 472.823 27.0776C472.825 27.0788 472.827 27.08 472.829 27.0812C472.833 27.0833 472.838 27.0862 472.841 27.0884C472.85 27.0933 472.857 27.0977 472.866 27.1026C472.871 27.1061 472.908 27.1273 472.913 27.1306C472.934 27.143 472.94 27.1461 472.96 27.1582C472.967 27.1623 473.046 27.2086 473.051 27.2119C473.117 27.2502 473.076 27.2261 473.139 27.2637C473.142 27.2654 473.147 27.2683 473.15 27.27C473.159 27.275 473.152 27.2714 473.161 27.2763C473.177 27.2857 473.166 27.2796 473.182 27.2889C473.182 27.2889 473.193 27.2951 473.193 27.2951C473.195 27.2961 473.196 27.2971 473.198 27.2982C473.2 27.2992 473.202 27.3002 473.203 27.3012C473.211 27.3055 473.207 27.3031 473.214 27.3074C473.218 27.3097 473.22 27.3112 473.224 27.3135C473.261 27.3352 473.27 27.3403 473.305 27.3614C473.382 27.4065 473.539 27.4985 473.598 27.5332C473.617 27.5448 473.709 27.5985 473.724 27.6075C473.737 27.6155 473.769 27.6343 473.782 27.6416C473.785 27.6434 473.786 27.644 473.789 27.6458C473.792 27.6473 473.793 27.6484 473.796 27.6499C473.799 27.6519 473.806 27.656 473.81 27.658C473.812 27.6591 473.815 27.6609 473.817 27.662C473.818 27.6627 473.819 27.6633 473.82 27.664C473.821 27.6647 473.822 27.6653 473.823 27.666C473.828 27.6687 473.825 27.6672 473.83 27.6699C473.835 27.6726 473.832 27.6713 473.837 27.6739C473.841 27.6762 473.885 27.7025 473.888 27.7041C473.897 27.7092 473.904 27.7136 473.913 27.7185C473.919 27.722 473.919 27.7221 473.925 27.7256C473.926 27.7263 473.935 27.7318 473.936 27.7325C473.959 27.7456 473.937 27.7329 473.959 27.7459C473.968 27.751 473.962 27.7473 473.97 27.7524C473.972 27.7536 473.974 27.7545 473.976 27.7556C473.977 27.7566 473.98 27.7579 473.981 27.7588C474.008 27.7745 473.997 27.7682 474.023 27.7832C474.074 27.8137 474.121 27.8413 474.155 27.8614C474.161 27.8648 474.163 27.8656 474.168 27.8689C474.178 27.8745 474.171 27.8706 474.18 27.876C474.188 27.8804 474.196 27.885 474.202 27.8887C474.21 27.8935 474.213 27.8954 474.22 27.8995C474.221 27.8997 474.222 27.9004 474.222 27.9007C474.223 27.9011 474.224 27.9014 474.224 27.9018C474.225 27.902 474.225 27.9022 474.225 27.9024C474.226 27.9026 474.226 27.9028 474.226 27.903C474.227 27.9032 474.227 27.9034 474.227 27.9035C474.228 27.9037 474.228 27.9039 474.228 27.9041C474.231 27.9059 474.232 27.9066 474.235 27.9082C474.244 27.9136 474.239 27.9103 474.247 27.9151C474.249 27.9162 474.254 27.9195 474.255 27.92C474.255 27.92 474.255 27.9201 474.256 27.9202C474.256 27.9203 474.256 27.9204 474.256 27.9204C474.256 27.9205 474.257 27.9208 474.257 27.9209C474.257 27.921 474.258 27.9216 474.258 27.9217C474.258 27.9219 474.258 27.9218 474.259 27.922C474.259 27.9221 474.259 27.9221 474.259 27.9222C474.259 27.9222 474.259 27.9223 474.259 27.9223C474.259 27.9224 474.259 27.9224 474.259 27.9225C474.259 27.9225 474.26 27.9226 474.26 27.9226C474.26 27.9227 474.26 27.9228 474.26 27.9229C474.26 27.9229 474.26 27.923 474.26 27.923C474.26 27.923 474.26 27.9231 474.26 27.9231C474.261 27.9232 474.261 27.9232 474.261 27.9233C474.261 27.9233 474.261 27.9235 474.261 27.9235C474.261 27.9235 474.261 27.9235 474.261 27.9236C474.261 27.9236 474.261 27.9236 474.261 27.9236C474.261 27.9236 474.261 27.9237 474.261 27.9237C474.261 27.9237 474.261 27.9237 474.262 27.9237C474.262 27.9238 474.262 27.9238 474.262 27.9238C474.262 27.9238 474.262 27.9238 474.262 27.9238C474.262 27.9238 474.262 27.9238 474.262 27.9239C474.262 27.9239 474.262 27.9239 474.262 27.9239C474.262 27.9239 474.262 27.9239 475.276 26.2ZM474.59 23.4761C473.356 22.7501 471.771 21.9792 469.864 21.1617L468.288 24.8383C470.114 25.6208 471.529 26.3165 472.562 26.9239L474.59 23.4761ZM469.918 21.186C467.957 20.2756 465.835 19.4767 463.556 18.7859L462.396 22.614C464.516 23.2566 466.461 23.991 468.234 24.814L469.918 21.186ZM463.556 18.7859C461.182 18.0667 458.82 17.7 456.476 17.7V21.7C458.398 21.7 460.369 22 462.396 22.614L463.556 18.7859ZM456.476 17.7C454.615 17.7 452.914 17.995 451.481 18.7111L453.27 22.2889C453.971 21.9383 455.004 21.7 456.476 21.7V17.7ZM451.481 18.7111C450.654 19.1249 449.944 19.7305 449.455 20.5554C448.971 21.3732 448.776 22.2835 448.776 23.2H452.776C452.776 22.8498 452.848 22.6768 452.896 22.5946C452.941 22.5195 453.031 22.4084 453.27 22.2889L451.481 18.7111ZM448.776 23.2C448.776 25.1175 449.684 26.6763 451.243 27.7481L453.509 24.4519C452.935 24.0571 452.776 23.6825 452.776 23.2H448.776ZM451.243 27.7481C452.541 28.6408 454.253 29.3801 456.283 30.0101L457.469 26.1899C455.632 25.6199 454.344 25.0258 453.509 24.4519L451.243 27.7481ZM456.301 30.0157C458.288 30.6118 460.645 31.3419 463.371 32.2065L464.58 28.3935C461.84 27.5248 459.463 26.7882 457.45 26.1843L456.301 30.0157ZM463.396 32.214C467.699 33.518 471.368 35.0037 474.423 36.6586L476.328 33.1414C472.984 31.3296 469.053 29.7487 464.556 28.386L463.396 32.214ZM474.423 36.6586C477.361 38.2499 479.558 40.2604 481.087 42.6711L484.465 40.5289C482.527 37.4729 479.79 35.0167 476.328 33.1414L474.423 36.6586ZM481.099 42.69C482.552 44.9259 483.376 48.0701 483.376 52.3H487.376C487.376 47.5965 486.466 43.6075 484.453 40.51L481.099 42.69ZM483.376 52.3C483.376 56.3345 482.65 59.5968 481.303 62.1735L484.848 64.0265C486.568 60.7365 487.376 56.7988 487.376 52.3H483.376ZM481.312 62.1567C479.928 64.745 478.081 66.7928 475.766 68.3359L477.985 71.6641C480.871 69.7405 483.157 67.1883 484.839 64.0433L481.312 62.1567ZM475.766 68.3359C473.368 69.9351 470.681 71.1122 467.691 71.8597L468.661 75.7403C472.071 74.8878 475.184 73.5315 477.985 71.6641L475.766 68.3359ZM467.729 71.8505C464.678 72.5498 461.561 72.9 458.376 72.9V76.9C461.857 76.9 465.274 76.5169 468.623 75.7495L467.729 71.8505ZM458.376 72.9C455.106 72.9 451.658 72.5794 448.027 71.9311L447.324 75.8689C451.16 76.5539 454.845 76.9 458.376 76.9V72.9ZM448.068 71.9388C444.488 71.2229 441.009 70.2798 437.63 69.11L436.322 72.89C439.875 74.1202 443.53 75.1104 447.284 75.8612L448.068 71.9388ZM437.662 69.1215C434.294 67.8907 431.235 66.4723 428.481 64.871L426.471 68.329C429.45 70.061 432.724 71.576 436.289 72.8785L437.662 69.1215ZM429.271 67.4818L437.671 50.3818L434.081 48.6182L425.681 65.7182L429.271 67.4818ZM435.876 49.5C434.847 51.215 434.847 51.215 434.847 51.215C434.847 51.215 434.847 51.215 434.847 51.215C434.847 51.215 434.847 51.215 434.847 51.215C434.847 51.215 434.847 51.215 434.847 51.2151C434.847 51.2151 434.847 51.2151 434.847 51.2151C434.847 51.2152 434.847 51.2152 434.847 51.2152C434.847 51.2152 434.847 51.2153 434.847 51.2153C434.847 51.2154 434.848 51.2155 434.848 51.2156C434.849 51.216 434.848 51.2157 434.849 51.2162C434.849 51.2165 434.85 51.217 434.851 51.2176C434.853 51.2185 434.853 51.2186 434.855 51.2197C434.856 51.2207 434.855 51.2199 434.857 51.2209C434.857 51.2211 434.859 51.2221 434.859 51.2223C434.863 51.2245 434.86 51.2232 434.864 51.2255C434.875 51.2316 434.867 51.2269 434.878 51.2337C434.882 51.2362 434.908 51.2515 434.917 51.2572C434.921 51.2595 434.925 51.262 434.929 51.2645C434.931 51.2658 434.934 51.2671 434.936 51.2684C434.937 51.2689 434.942 51.2719 434.943 51.2724C434.943 51.2728 434.944 51.2731 434.944 51.2734C434.945 51.2738 434.945 51.2741 434.946 51.2745C434.949 51.2766 434.946 51.2745 434.949 51.2766C434.95 51.2769 434.956 51.2806 434.957 51.2809C434.959 51.2826 434.969 51.2881 434.972 51.29C435.072 51.35 435.007 51.3112 435.128 51.3837C435.239 51.4505 435.113 51.3748 435.23 51.4447C435.235 51.4479 435.336 51.5087 435.347 51.515C435.614 51.6751 435.622 51.6798 435.972 51.89C436.355 52.1202 436.38 52.1348 436.847 52.415L438.905 48.985C438.88 48.9699 438.806 48.9256 438.782 48.9112C438.742 48.8871 438.762 48.8991 438.722 48.8752C438.69 48.8561 438.724 48.8763 438.692 48.8574C438.689 48.8556 438.68 48.8503 438.677 48.8485C438.675 48.847 438.672 48.8456 438.67 48.8441C438.667 48.8426 438.665 48.8412 438.663 48.8397C438.578 48.7891 438.63 48.8204 438.547 48.7706C438.524 48.7568 438.458 48.7167 438.436 48.7038C438.425 48.6972 438.392 48.6777 438.382 48.6712C438.376 48.668 438.36 48.6584 438.355 48.6552C438.35 48.652 438.347 48.6504 438.342 48.6472C438.34 48.6459 438.337 48.6446 438.335 48.6433C438.333 48.6419 438.331 48.6406 438.329 48.6393C438.301 48.6226 438.304 48.6245 438.276 48.608C438.256 48.5956 438.245 48.5894 438.225 48.5772C438.184 48.5528 438.065 48.4813 438.03 48.46C437.968 48.4227 437.727 48.2786 437.686 48.2538C437.563 48.1802 437.507 48.1461 437.405 48.085C437.238 47.985 437.113 47.91 437.03 47.86C437.023 47.8561 437.006 47.8456 437 47.8424C436.986 47.8337 436.988 47.8352 436.975 47.8272C436.974 47.8263 436.971 47.8247 436.969 47.8238C436.968 47.8231 436.965 47.8211 436.964 47.8205C436.958 47.8167 436.96 47.8179 436.954 47.8143C436.942 47.8076 436.946 47.8097 436.936 47.8038C436.928 47.7992 436.915 47.7912 436.913 47.7897C436.909 47.7873 436.909 47.7878 436.907 47.7862C436.906 47.7857 436.906 47.7856 436.905 47.7853C436.905 47.7852 436.905 47.7851 436.905 47.7851C436.905 47.7851 436.905 47.785 436.905 47.785C436.905 47.785 436.905 47.785 436.905 47.785C436.905 47.785 436.905 47.785 435.876 49.5ZM436.847 52.415C438.27 53.2692 440.112 54.2045 442.348 55.2207L444.003 51.5793C441.839 50.5955 440.148 49.7308 438.905 48.985L436.847 52.415ZM442.348 55.2207C444.641 56.2631 447.161 57.1936 449.901 58.0157L451.05 54.1843C448.457 53.4064 446.11 52.5369 444.003 51.5793L442.348 55.2207ZM449.914 58.0195C452.822 58.8706 455.744 59.3 458.676 59.3V55.3C456.14 55.3 453.596 54.9294 451.038 54.1805L449.914 58.0195ZM458.676 59.3C459.816 59.3 460.844 59.2295 461.734 59.0677C462.603 58.9096 463.468 58.6424 464.185 58.1641L461.966 54.8359C461.884 54.891 461.615 55.0237 461.018 55.1323C460.441 55.2372 459.669 55.3 458.676 55.3V59.3ZM464.214 58.1444C465.539 57.227 466.376 55.8825 466.376 54.2H462.376C462.376 54.3842 462.346 54.573 461.937 54.8556L464.214 58.1444ZM466.376 54.2C466.376 53.1301 466.089 52.1111 465.474 51.2169C464.871 50.34 464.027 49.6896 463.07 49.2111L461.281 52.7889C461.791 53.0438 462.047 53.2934 462.178 53.4831C462.296 53.6555 462.376 53.8699 462.376 54.2H466.376ZM463.133 49.2442C461.485 48.345 459.394 47.5626 456.911 46.873L455.84 50.727C458.158 51.3707 459.933 52.055 461.218 52.7558L463.133 49.2442ZM456.975 46.892C454.65 46.1611 452.057 45.3299 449.195 44.3983L447.957 48.2017C450.828 49.1367 453.435 49.9722 455.776 50.708L456.975 46.892ZM449.217 44.4057C445.188 43.0409 441.952 41.539 439.466 39.9231L437.286 43.2769C440.133 45.1277 443.697 46.7591 447.934 48.1943L449.217 44.4057ZM439.495 39.9423C437.05 38.2924 435.331 36.4257 434.245 34.3665L430.707 36.2335C432.154 38.9743 434.368 41.3076 437.257 43.2577L439.495 39.9423ZM434.255 34.3864C433.165 32.2643 432.576 29.6267 432.576 26.4H428.576C428.576 30.1066 429.253 33.4023 430.697 36.2136L434.255 34.3864ZM432.576 26.4C432.576 21.4505 433.731 17.474 435.916 14.3448L432.636 12.0551C429.887 15.9927 428.576 20.8161 428.576 26.4H432.576ZM435.916 14.3448C438.172 11.1132 441.12 8.67842 444.797 7.02384L443.155 3.37615C438.832 5.32158 435.313 8.22014 432.636 12.0551L435.916 14.3448ZM444.81 7.01766C448.604 5.27631 452.684 4.4 457.076 4.4V0.399998C452.134 0.399998 447.481 1.39036 443.141 3.38234L444.81 7.01766ZM457.076 4.4C460.374 4.4 463.531 4.81201 466.553 5.63045L467.599 1.76955C464.221 0.854652 460.711 0.399998 457.076 0.399998V4.4ZM466.6 5.64259C469.771 6.41912 472.699 7.38576 475.388 8.53829L476.964 4.86171C474.053 3.61423 470.914 2.58088 467.552 1.7574L466.6 5.64259ZM475.404 8.54488C478.24 9.73243 480.698 10.8472 482.781 11.8888L484.57 8.31114C482.387 7.21951 479.844 6.06756 476.948 4.85511L475.404 8.54488ZM481.903 9.17486L473.503 25.2749L477.049 27.1251L485.449 11.0251L481.903 9.17486Z" fill="#284050"/>
</svg>
