<svg width="357" height="479" viewBox="0 0 357 479" fill="none" xmlns="http://www.w3.org/2000/svg">
<path d="M139.747 347.086C129.526 374.888 118.054 387.858 91.06 407.983C116.63 408.168 130 404.015 151.915 387.684C150.665 427.389 156.013 446.944 176.267 477C200.761 446.553 205.65 426.545 204.669 387.684C224.479 405.987 238.324 409.048 265.524 407.983C239.131 387.078 228.767 373.632 216.837 347.086M139.747 347.086H216.837M139.747 347.086H95.1107V318.667H123.513M216.837 347.086H261.457V318.667H229.004M123.513 318.667C123.513 290.247 95.1107 257.768 74.8257 261.83C62.6578 265.889 71.6451 290.371 78.892 310.547C13.9704 286.188 -22.5331 217.17 18.037 180.633C48.7177 155.772 70.775 156.274 99.1772 180.633C139.747 225.291 147.184 260.802 155.982 318.667M123.513 318.667H155.982M229.004 318.667C241.52 282.266 265.524 253.709 281.742 261.83C289.86 265.889 285.54 289.304 277.692 310.547C346.664 278.068 375.066 229.351 342.597 180.633C322.328 152.214 277.692 156.274 249.29 188.753C216.837 229.351 208.719 261.83 204.669 318.667M229.004 318.667H204.669M155.982 318.667H164.083M204.669 318.667H196.552M164.083 318.667H196.552M164.083 318.667C162.627 282.025 157.864 262.572 143.798 229.351C102.104 128.369 123.149 81.7161 176.267 2C241.426 82.0245 260.904 129.825 212.77 229.351C196.947 262.982 196.884 282.605 196.552 318.667" stroke="#284050" stroke-width="2"/>
</svg>
