<svg width="18" height="20" viewBox="0 0 18 20" fill="none" xmlns="http://www.w3.org/2000/svg">
<path d="M3.7 1L1 4.6V17.2C1 17.6774 1.18964 18.1352 1.52721 18.4728C1.86477 18.8104 2.32261 19 2.8 19H15.4C15.8774 19 16.3352 18.8104 16.6728 18.4728C17.0104 18.1352 17.2 17.6774 17.2 17.2V4.6L14.5 1H3.7Z" stroke="#A7C6D9" stroke-linecap="round" stroke-linejoin="round"/>
<path d="M1 4.59998H17.2" stroke="#A7C6D9" stroke-linecap="round" stroke-linejoin="round"/>
<path d="M12.7 8.20001C12.7 9.15479 12.3207 10.0705 11.6456 10.7456C10.9705 11.4207 10.0548 11.8 9.1 11.8C8.14522 11.8 7.22955 11.4207 6.55442 10.7456C5.87928 10.0705 5.5 9.15479 5.5 8.20001" stroke="#A7C6D9" stroke-linecap="round" stroke-linejoin="round"/>
</svg>
