<svg width="24" height="32" viewBox="0 0 24 32" fill="none" xmlns="http://www.w3.org/2000/svg">
<path d="M11.3074 21C11.2154 18.6858 10.9139 17.4572 10.0253 15.359C7.39019 8.98118 8.71959 6.0347 12.0766 1C16.1946 6.05418 17.4261 9.07318 14.3843 15.359C13.3835 17.4831 13.3799 18.7224 13.3587 21M9.76889 22.7949C9.12319 24.5508 8.3979 25.37 6.692 26.641C8.3075 26.6527 9.1533 26.3904 10.5381 25.359C10.4592 27.8667 10.7965 29.1017 12.0766 31C13.6251 29.077 13.934 27.8134 13.8715 25.359C15.1235 26.515 15.9989 26.7083 17.7176 26.641C16.0499 25.3207 15.3953 24.4715 14.6407 22.7949H9.76889ZM9.76889 22.7949H14.6407H9.76889ZM9.76889 22.7949H6.9484V21H8.7433L9.76889 22.7949ZM14.6407 22.7949H17.4612V21H15.4099L14.6407 22.7949ZM8.7433 21C8.7433 19.2051 6.94839 17.1538 5.66629 17.4103C4.89719 17.6667 5.46479 19.2129 5.92279 20.4872C1.82029 18.9487 -0.487404 14.5897 2.07659 12.2821C4.01559 10.7119 5.41 10.7436 7.2048 12.2821C9.7689 15.1026 10.2393 17.3454 10.7946 21H8.7433ZM8.7433 21H10.7946H8.7433ZM15.4099 21C16.2013 18.701 17.7177 16.8974 18.7433 17.4103C19.256 17.6667 18.9828 19.1455 18.4869 20.4872C22.8459 18.4359 24.6408 15.359 22.5894 12.2821C21.3075 10.4872 18.4869 10.7436 16.692 12.7949C14.6407 15.359 14.128 17.4103 13.8715 21H15.4099ZM15.4099 21H13.8715H15.4099ZM10.7946 21H11.3074H10.7946ZM13.8715 21H13.3587H13.8715ZM11.3074 21H13.3587H11.3074Z" stroke="#A7C6D9"/>
</svg>
