<svg width="102" height="24" viewBox="0 0 102 24" fill="none" xmlns="http://www.w3.org/2000/svg">
<path d="M15.628 4.05599C15.2654 3.6507 14.86 3.2987 14.412 3C13.964 2.68 13.484 2.424 12.972 2.232C12.46 2.0187 11.9054 1.85867 11.308 1.752C10.7107 1.64533 10.0707 1.592 9.38803 1.592C7.16943 1.592 5.54803 2.01869 4.52403 2.87199C3.52143 3.70399 3.02003 4.8347 3.02003 6.264C3.02003 7.224 3.24403 7.992 3.69203 8.568C4.16143 9.1227 4.88673 9.5707 5.86803 9.912C6.84943 10.2533 8.11873 10.584 9.67603 10.904C11.3187 11.2453 12.7374 11.6507 13.932 12.12C15.1267 12.568 16.044 13.1867 16.684 13.976C17.3454 14.7653 17.676 15.832 17.676 17.176C17.676 18.1787 17.484 19.064 17.1 19.832C16.716 20.5787 16.1614 21.1973 15.436 21.688C14.7107 22.1787 13.8467 22.552 12.844 22.808C11.8627 23.064 10.764 23.192 9.54803 23.192C8.37473 23.192 7.25473 23.064 6.18803 22.808C5.12143 22.552 4.11873 22.1787 3.18003 21.688C2.24143 21.1973 1.36673 20.568 0.55603 19.8L1.42003 18.488C1.88943 19 2.41203 19.4587 2.98803 19.864C3.58543 20.248 4.22543 20.5787 4.90803 20.856C5.61203 21.1333 6.35873 21.3573 7.14803 21.528C7.93743 21.6773 8.75873 21.752 9.61203 21.752C11.596 21.752 13.1427 21.3893 14.252 20.664C15.3827 19.9173 15.948 18.8187 15.948 17.368C15.948 16.3653 15.692 15.5547 15.18 14.936C14.668 14.3173 13.8787 13.816 12.812 13.432C11.7454 13.0267 10.412 12.6533 8.81203 12.312C7.21203 11.9707 5.84673 11.5867 4.71603 11.16C3.60673 10.7333 2.76403 10.1573 2.18803 9.43199C1.63343 8.70669 1.35603 7.7253 1.35603 6.488C1.35603 5.12269 1.68673 3.97069 2.34803 3.03199C3.03073 2.07199 3.98003 1.34667 5.19603 0.855995C6.41203 0.365325 7.80943 0.119995 9.38803 0.119995C10.3694 0.119995 11.276 0.215995 12.108 0.407995C12.9614 0.599995 13.74 0.898665 14.444 1.304C15.1694 1.688 15.8414 2.1787 16.46 2.776L15.628 4.05599ZM34.139 23.16C32.3257 23.16 30.811 22.84 29.595 22.2C28.379 21.56 27.4084 20.696 26.683 19.608C25.9577 18.4987 25.435 17.2613 25.115 15.896C24.795 14.5307 24.635 13.1333 24.635 11.704V0.279995H26.267V11.704C26.267 12.9413 26.395 14.1573 26.651 15.352C26.907 16.5467 27.323 17.624 27.899 18.584C28.4964 19.5227 29.2964 20.2693 30.299 20.824C31.323 21.3787 32.5924 21.656 34.107 21.656C35.643 21.656 36.9124 21.368 37.915 20.792C38.939 20.216 39.739 19.4587 40.315 18.52C40.9124 17.56 41.3284 16.4933 41.563 15.32C41.819 14.1253 41.947 12.92 41.947 11.704V0.279995H43.579V11.704C43.579 13.2187 43.4084 14.6693 43.067 16.056C42.747 17.4213 42.2137 18.6373 41.467 19.704C40.7204 20.7707 39.7497 21.6133 38.555 22.232C37.3604 22.8507 35.8884 23.16 34.139 23.16ZM52.3745 23V0.279995H54.0065V23H52.3745ZM79.04 1.752H70.72V23H69.088V1.752H60.7683V0.279995H79.04V1.752ZM98.991 4.05599C98.628 3.6507 98.223 3.2987 97.775 3C97.327 2.68 96.847 2.424 96.335 2.232C95.823 2.0187 95.268 1.85867 94.671 1.752C94.073 1.64533 93.433 1.592 92.751 1.592C90.532 1.592 88.911 2.01869 87.887 2.87199C86.884 3.70399 86.383 4.8347 86.383 6.264C86.383 7.224 86.607 7.992 87.055 8.568C87.524 9.1227 88.249 9.5707 89.231 9.912C90.212 10.2533 91.481 10.584 93.039 10.904C94.681 11.2453 96.1 11.6507 97.295 12.12C98.489 12.568 99.407 13.1867 100.047 13.976C100.708 14.7653 101.039 15.832 101.039 17.176C101.039 18.1787 100.847 19.064 100.463 19.832C100.079 20.5787 99.524 21.1973 98.799 21.688C98.073 22.1787 97.209 22.552 96.207 22.808C95.225 23.064 94.127 23.192 92.911 23.192C91.737 23.192 90.617 23.064 89.551 22.808C88.484 22.552 87.481 22.1787 86.543 21.688C85.604 21.1973 84.729 20.568 83.919 19.8L84.783 18.488C85.252 19 85.775 19.4587 86.351 19.864C86.948 20.248 87.588 20.5787 88.271 20.856C88.975 21.1333 89.721 21.3573 90.511 21.528C91.3 21.6773 92.121 21.752 92.975 21.752C94.959 21.752 96.505 21.3893 97.615 20.664C98.745 19.9173 99.311 18.8187 99.311 17.368C99.311 16.3653 99.055 15.5547 98.543 14.936C98.031 14.3173 97.241 13.816 96.175 13.432C95.108 13.0267 93.775 12.6533 92.175 12.312C90.575 11.9707 89.209 11.5867 88.079 11.16C86.969 10.7333 86.127 10.1573 85.551 9.43199C84.996 8.70669 84.719 7.7253 84.719 6.488C84.719 5.12269 85.049 3.97069 85.711 3.03199C86.393 2.07199 87.343 1.34667 88.559 0.855995C89.775 0.365325 91.172 0.119995 92.751 0.119995C93.732 0.119995 94.639 0.215995 95.471 0.407995C96.324 0.599995 97.103 0.898665 97.807 1.304C98.532 1.688 99.204 2.1787 99.823 2.776L98.991 4.05599Z" fill="#A7C6D9"/>
</svg>
