<svg width="25" height="32" viewBox="0 0 25 32" fill="none" xmlns="http://www.w3.org/2000/svg">
<path d="M11.743 21C11.651 18.6858 11.35 17.4572 10.461 15.359C7.826 8.98118 9.15601 6.0347 12.513 1C16.631 6.05418 17.862 9.07318 14.82 15.359C13.82 17.4831 13.816 18.7224 13.795 21M10.205 22.7949C9.55901 24.5508 8.83401 25.37 7.12801 26.641C8.74401 26.6527 9.589 26.3904 10.974 25.359C10.895 27.8667 11.233 29.1017 12.513 31C14.061 29.077 14.37 27.8134 14.308 25.359C15.56 26.515 16.435 26.7083 18.154 26.641C16.486 25.3207 15.831 24.4715 15.077 22.7949H10.205ZM10.205 22.7949H15.077H10.205ZM10.205 22.7949H7.38401V21H9.17901L10.205 22.7949ZM15.077 22.7949H17.897V21H15.846L15.077 22.7949ZM9.17901 21C9.17901 19.2051 7.38401 17.1538 6.10201 17.4103C5.33301 17.6667 5.901 19.2129 6.359 20.4872C2.256 18.9487 -0.0509951 14.5897 2.513 12.2821C4.452 10.7119 5.84601 10.7436 7.64101 12.2821C10.205 15.1026 10.675 17.3454 11.231 21H9.17901ZM9.17901 21H11.231H9.17901ZM15.846 21C16.637 18.701 18.154 16.8974 19.179 17.4103C19.692 17.6667 19.419 19.1455 18.923 20.4872C23.282 18.4359 25.077 15.359 23.025 12.2821C21.744 10.4872 18.923 10.7436 17.128 12.7949C15.077 15.359 14.564 17.4103 14.308 21H15.846ZM15.846 21H14.308H15.846ZM11.231 21H11.743H11.231ZM14.308 21H13.795H14.308ZM11.743 21H13.795H11.743Z" stroke="#01090D"/>
</svg>
